<?xml version="1.0" encoding="UTF-8" standalone="no"?>
<!-- Created with Inkscape (http://www.inkscape.org/) -->

<svg
   version="1.1"
   id="svg1"
   width="242.69467"
   height="235.93066"
   viewBox="0 0 242.69467 235.93066"
   sodipodi:docname="cavity_figure.pdf"
   xmlns:inkscape="http://www.inkscape.org/namespaces/inkscape"
   xmlns:sodipodi="http://sodipodi.sourceforge.net/DTD/sodipodi-0.dtd"
   xmlns="http://www.w3.org/2000/svg"
   xmlns:svg="http://www.w3.org/2000/svg">
  <defs
     id="defs1" />
  <sodipodi:namedview
     id="namedview1"
     pagecolor="#ffffff"
     bordercolor="#000000"
     borderopacity="0.25"
     inkscape:showpageshadow="2"
     inkscape:pageopacity="0.0"
     inkscape:pagecheckerboard="0"
     inkscape:deskcolor="#d1d1d1">
    <inkscape:page
       x="0"
       y="0"
       inkscape:label="1"
       id="page1"
       width="242.69467"
       height="235.93066"
       margin="0"
       bleed="0" />
  </sodipodi:namedview>
  <g
     id="g1"
     inkscape:groupmode="layer"
     inkscape:label="1">
    <path
       id="path1"
       d="M 56.69362,-56.69362 H -56.69362 V 56.69362 H 56.69362 Z"
       style="fill:none;stroke:#000000;stroke-width:0.79701;stroke-linecap:butt;stroke-linejoin:miter;stroke-miterlimit:10;stroke-dasharray:none;stroke-opacity:1"
       transform="matrix(1.3333333,0,0,-1.3333333,106.30933,119.74667)" />
    <path
       id="path2"
       d="M 56.69362,0 H -56.69362"
       style="fill:none;stroke:#000000;stroke-width:0.3985;stroke-linecap:butt;stroke-linejoin:miter;stroke-miterlimit:10;stroke-dasharray:2.98883, 2.98883;stroke-dashoffset:0;stroke-opacity:1"
       transform="matrix(1.3333333,0,0,-1.3333333,106.30933,119.74667)" />
    <path
       id="path3"
       d="m 0,36.85092 c -4.69675,0 -8.50412,-3.80736 -8.50412,-8.50412 0,-4.69676 3.80737,-8.50412 8.50412,-8.50412 4.69675,0 8.50412,3.80736 8.50412,8.50412 0,4.69676 -3.80737,8.50412 -8.50412,8.50412 z"
       style="fill:none;stroke:#000000;stroke-width:0.79701;stroke-linecap:butt;stroke-linejoin:miter;stroke-miterlimit:10;stroke-dasharray:none;stroke-opacity:1"
       transform="matrix(1.3333333,0,0,-1.3333333,106.30933,119.74667)" />
    <path
       id="path4"
       d="M -5.66927,22.67752 5.66927,34.01608"
       style="fill:none;stroke:#000000;stroke-width:0.79701;stroke-linecap:butt;stroke-linejoin:miter;stroke-miterlimit:10;stroke-dasharray:none;stroke-opacity:1"
       transform="matrix(1.3333333,0,0,-1.3333333,106.30933,119.74667)" />
    <path
       id="path5"
       d="M 5.66927,22.67752 -5.66927,34.01608"
       style="fill:none;stroke:#000000;stroke-width:0.79701;stroke-linecap:butt;stroke-linejoin:miter;stroke-miterlimit:10;stroke-dasharray:none;stroke-opacity:1"
       transform="matrix(1.3333333,0,0,-1.3333333,106.30933,119.74667)" />
    <path
       id="path6"
       d="m 0,-19.84268 c -4.69675,0 -8.50412,-3.80736 -8.50412,-8.50412 0,-4.69676 3.80737,-8.50412 8.50412,-8.50412 4.69675,0 8.50412,3.80736 8.50412,8.50412 0,4.69676 -3.80737,8.50412 -8.50412,8.50412 z"
       style="fill:none;stroke:#000000;stroke-width:0.79701;stroke-linecap:butt;stroke-linejoin:miter;stroke-miterlimit:10;stroke-dasharray:none;stroke-opacity:1"
       transform="matrix(1.3333333,0,0,-1.3333333,106.30933,119.74667)" />
    <path
       id="path7"
       d="m 0,-27.35052 c -0.55023,0 -0.99628,-0.44605 -0.99628,-0.99628 0,-0.55023 0.44605,-0.99628 0.99628,-0.99628 0.55023,0 0.99628,0.44605 0.99628,0.99628 0,0.55023 -0.44605,0.99628 -0.99628,0.99628 z"
       style="fill:#000000;fill-opacity:1;fill-rule:nonzero;stroke:none"
       transform="matrix(1.3333333,0,0,-1.3333333,106.30933,119.74667)" />
    <path
       id="path8"
       d="M 14.17339,65.19774 H -13.21698"
       style="fill:none;stroke:#000000;stroke-width:1.19553;stroke-linecap:butt;stroke-linejoin:miter;stroke-miterlimit:10;stroke-dasharray:none;stroke-opacity:1"
       transform="matrix(1.3333333,0,0,-1.3333333,106.30933,119.74667)" />
    <path
       id="path9"
       d="M -1.91284,2.55046 C -1.75343,1.59402 0,0.15938 0.4782,0 0,-0.15938 -1.75343,-1.59402 -1.91284,-2.55046"
       style="fill:none;stroke:#000000;stroke-width:0.9564;stroke-linecap:round;stroke-linejoin:round;stroke-miterlimit:10;stroke-dasharray:none;stroke-opacity:1"
       transform="matrix(-1.3333333,0,0,1.3333333,88.686693,32.816347)" />
    <path
       id="path10"
       d="M 65.19774,-14.17339 V 13.21698"
       style="fill:none;stroke:#000000;stroke-width:1.19553;stroke-linecap:butt;stroke-linejoin:miter;stroke-miterlimit:10;stroke-dasharray:none;stroke-opacity:1"
       transform="matrix(1.3333333,0,0,-1.3333333,106.30933,119.74667)" />
    <path
       id="path11"
       d="M -1.91284,2.55046 C -1.75343,1.59402 0,0.15938 0.4782,0 0,-0.15938 -1.75343,-1.59402 -1.91284,-2.55046"
       style="fill:none;stroke:#000000;stroke-width:0.9564;stroke-linecap:round;stroke-linejoin:round;stroke-miterlimit:10;stroke-dasharray:none;stroke-opacity:1"
       transform="matrix(0,-1.3333333,-1.3333333,0,193.23965,102.12403)" />
    <path
       id="path12"
       d="M 48.18947,-56.69362 V 56.69362"
       style="fill:none;stroke:#000000;stroke-width:0.3985;stroke-linecap:butt;stroke-linejoin:miter;stroke-miterlimit:10;stroke-dasharray:2.98883, 2.98883;stroke-dashoffset:0;stroke-opacity:1"
       transform="matrix(1.3333333,0,0,-1.3333333,106.30933,119.74667)" />
    <path
       id="path13"
       d="M -48.18947,-56.69362 V 56.69362"
       style="fill:none;stroke:#000000;stroke-width:0.3985;stroke-linecap:butt;stroke-linejoin:miter;stroke-miterlimit:10;stroke-dasharray:2.98883, 2.98883;stroke-dashoffset:0;stroke-opacity:1"
       transform="matrix(1.3333333,0,0,-1.3333333,106.30933,119.74667)" />
    <path
       id="path14"
       d="m 10.653617,-6.129875 c 0.05859,-0.1640625 0.07031,-0.1875 0.375,-0.2109375 0.199219,-0.023437 0.410156,-0.023437 0.5625,-0.023437 V -6.833 c -0.269531,0.011719 -0.609375,0.023437 -1.066406,0.023437 -0.375,0 -0.9960938,0 -1.3476563,-0.023437 v 0.46875 c 0.2460937,0 0.7265625,0 1.0195313,0.1054687 L 8.4739297,-1.8056563 6.7161172,-6.36425 H 7.6770547 V -6.833 c -0.3867188,0.023437 -1.3242188,0.023437 -1.7460938,0.023437 -0.3867187,0 -1.1835937,0 -1.5234375,-0.023437 v 0.46875 H 5.2629922 L 5.6731484,-5.3095625 4.3137734,-1.8056563 2.5559609,-6.36425 H 3.5051797 V -6.833 c -0.375,0.023437 -1.3125,0.023437 -1.7460938,0.023437 -0.3867187,0 -1.17187496,0 -1.52343746,-0.023437 v 0.46875 H 1.1028359 l 2.390625,6.1875 c 0.058594,0.15234375 0.09375,0.2578125 0.3398438,0.2578125 0.2578125,0 0.2929687,-0.10546875 0.3515625,-0.2578125 l 1.734375,-4.4882813 1.734375,4.4882813 c 0.058594,0.15234375 0.09375,0.2578125 0.3515625,0.2578125 0.2460937,0 0.28125,-0.10546875 0.3398437,-0.2578125 z m 0,0"
       style="fill:#000000;fill-opacity:1;fill-rule:nonzero;stroke:none"
       aria-label="W"
       transform="matrix(1.3333333,0,0,1.3333333,117.20533,67.610667)" />
    <path
       id="path15"
       d="m 10.653617,-6.1288359 c 0.05859,-0.1640625 0.07031,-0.1875 0.375,-0.2109375 0.199219,-0.023437 0.410156,-0.023437 0.5625,-0.023437 v -0.46875 c -0.269531,0.011719 -0.609375,0.023437 -1.066406,0.023437 -0.375,0 -0.9960938,0 -1.3476563,-0.023437 v 0.46875 c 0.2460937,0 0.7265625,0 1.0195313,0.1054687 l -1.7226563,4.453125 -1.7578125,-4.5585937 h 0.9609375 v -0.46875 c -0.3867188,0.023437 -1.3242188,0.023437 -1.7460938,0.023437 -0.3867187,0 -1.1835937,0 -1.5234375,-0.023437 v 0.46875 h 0.8554688 l 0.4101562,1.0546875 -1.359375,3.5039062 -1.7578125,-4.5585937 h 0.9492188 v -0.46875 c -0.375,0.023437 -1.3125,0.023437 -1.7460938,0.023437 -0.3867187,0 -1.17187496,0 -1.52343746,-0.023437 v 0.46875 H 1.1028359 l 2.390625,6.18749996 c 0.058594,0.15234375 0.09375,0.2578125 0.3398438,0.2578125 0.2578125,0 0.2929687,-0.10546875 0.3515625,-0.2578125 l 1.734375,-4.48828126 1.734375,4.48828126 c 0.058594,0.15234375 0.09375,0.2578125 0.3515625,0.2578125 0.2460937,0 0.28125,-0.10546875 0.3398437,-0.2578125 z m 0,0"
       style="fill:#000000;fill-opacity:1;fill-rule:nonzero;stroke:none"
       aria-label="W"
       transform="matrix(1.3333333,0,0,1.3333333,117.20533,180.996)" />
    <path
       id="path16"
       d="m 5.3434141,-5.9285313 c -0.1289063,0.1289063 -0.4570313,0.4101563 -0.4570313,0.5859375 0,0.1054688 0.09375,0.1992188 0.1992188,0.1992188 0.082031,0 0.1289062,-0.070312 0.1875,-0.1289063 0.1171875,-0.140625 0.3398437,-0.421875 0.7851562,-0.6445312 0.070312,-0.035156 0.1640625,-0.09375 0.1640625,-0.2109375 0,-0.09375 -0.070312,-0.1523438 -0.140625,-0.1992188 -0.2109375,-0.1523437 -0.328125,-0.328125 -0.3984375,-0.5625 -0.023437,-0.09375 -0.070312,-0.2226562 -0.1992187,-0.2226562 -0.140625,0 -0.1992188,0.1289062 -0.1992188,0.2109375 0,0.046875 0.070312,0.3632812 0.234375,0.5742187 H 2.1559141 c -0.1640625,0 -0.3398438,0 -0.3398438,0.1992188 0,0.1992187 0.1757813,0.1992187 0.3398438,0.1992187 z M -0.009125,1.7443203 c -0.09375,0.3867188 -0.1171875,0.46875 -0.90234375,0.46875 -0.17578125,0 -0.26953125,0 -0.26953125,0.1992188 0,0.1054687 0.082031,0.1054687 0.26953125,0.1054687 H 2.6393125 c 1.5703125,0 2.7539063,-1.171875 2.7539063,-2.15624999 0,-0.71484375 -0.5859375,-1.2890625 -1.546875,-1.39453121 1.03125,-0.1992188 2.0859375,-0.9375 2.0859375,-1.875 0,-0.7382813 -0.65625,-1.3828125 -1.8515625,-1.3828125 H 0.72915625 c -0.1875,0 -0.29296875,0 -0.29296875,0.1992187 0,0.1171875 0.09375,0.1171875 0.28125,0.1171875 0.0234375,0 0.2109375,0 0.375,0.011719 0.1875,0.023437 0.2695313,0.035156 0.2695313,0.1640625 0,0.035156 -0.011719,0.070312 -0.035156,0.1875 z m 1.5,-2.8710937 0.6210938,-2.4726563 c 0.09375,-0.3515625 0.1054687,-0.375 0.5390625,-0.375 h 1.2890625 c 0.8671875,0 1.078125,0.5859375 1.078125,1.0195313 0,0.8789062 -0.8554688,1.828125 -2.0742188,1.828125 z M 1.0455625,2.2130703 c -0.140625,0 -0.15234375,0 -0.22265625,-0.011719 C 0.72915625,2.1896328 0.694,2.1779141 0.694,2.0958828 c 0,-0.023437 0,-0.046875 0.0585938,-0.2226562 L 1.4322813,-0.90411719 H 3.319 c 0.9609375,0 1.1484375,0.7265625 1.1484375,1.16015625 0,0.98437504 -0.890625,1.95703124 -2.0625,1.95703124 z m 0,0"
       style="fill:#000000;fill-opacity:1;fill-rule:nonzero;stroke:none"
       aria-label="⃗&#10;B"
       transform="matrix(1.3333333,0,0,1.3333333,103.07467,24.545333)" />
    <g
       id="g16"
       aria-label="−∇T"
       transform="matrix(1.3333333,0,0,1.3333333,196.632,123.732)">
      <path
         id="path17"
         d="m 6.5631094,-2.2980234 c 0.1757812,0 0.3515625,0 0.3515625,-0.1992188 0,-0.1992187 -0.1757813,-0.1992187 -0.3515625,-0.1992187 h -5.390625 c -0.1640625,0 -0.33984377,0 -0.33984377,0.1992187 0,0.1992188 0.17578127,0.1992188 0.33984377,0.1992188 z m 8.9560546,-4.2890625 c 0.02344,-0.023437 0.04687,-0.09375 0.04687,-0.140625 0,-0.070312 -0.01172,-0.082031 -0.234375,-0.082031 H 8.4527578 c -0.2226562,0 -0.234375,0.011719 -0.234375,0.082031 0,0.046875 0.035156,0.1171875 0.046875,0.140625 l 3.3632812,6.72656246 c 0.07031,0.12890625 0.09375,0.1875 0.269531,0.1875 0.164063,0 0.199219,-0.0585938 0.269532,-0.1875 z m -6.0703124,0.5039062 h 5.4726564 l -2.730469,5.47265626 z m 0,0"
         style="fill:#000000;fill-opacity:1;fill-rule:nonzero;stroke:none" />
      <path
         id="path18"
         d="m 20.306273,-6.0480234 c 0.07031,-0.28125 0.105469,-0.3398438 0.234375,-0.3632813 0.08203,-0.023437 0.410157,-0.023437 0.621094,-0.023437 1.007813,0 1.453125,0.035156 1.453125,0.8203125 0,0.140625 -0.03516,0.5273438 -0.08203,0.796875 0,0.035156 -0.02344,0.1523438 -0.02344,0.1875 0,0.058594 0.02344,0.1289063 0.117188,0.1289063 0.105469,0 0.128906,-0.082031 0.152344,-0.234375 l 0.269531,-1.734375 c 0.01172,-0.035156 0.01172,-0.140625 0.01172,-0.1640625 0,-0.1054688 -0.09375,-0.1054688 -0.269532,-0.1054688 h -5.519531 c -0.246094,0 -0.257812,0 -0.316406,0.1992188 l -0.597656,1.7460937 c -0.01172,0.023437 -0.07031,0.1640625 -0.07031,0.1757813 0,0.070312 0.05859,0.1171875 0.128906,0.1171875 0.09375,0 0.105469,-0.046875 0.164063,-0.2109375 0.539062,-1.546875 0.796875,-1.7226563 2.273437,-1.7226563 h 0.386719 c 0.28125,0 0.28125,0.035156 0.28125,0.1171875 0,0.058594 -0.03516,0.1757813 -0.04687,0.2109375 l -1.324219,5.32031251 c -0.09375,0.36328125 -0.128906,0.48046875 -1.195312,0.48046875 -0.351563,0 -0.410156,0 -0.410156,0.1875 0,0.1171875 0.105468,0.1171875 0.164062,0.1171875 0.269531,0 0.550781,-0.0234375 0.820313,-0.0234375 0.28125,0 0.5625,-0.01171875 0.84375,-0.01171875 0.28125,0 0.5625,0.01171875 0.832031,0.01171875 0.28125,0 0.585937,0.0234375 0.867187,0.0234375 0.09375,0 0.210938,0 0.210938,-0.19921875 0,-0.10546875 -0.08203,-0.10546875 -0.339844,-0.10546875 -0.246094,0 -0.375,0 -0.632812,-0.0234375 -0.292969,-0.0351563 -0.363282,-0.0585938 -0.363282,-0.22265625 0,-0.0117188 0,-0.0585938 0.03516,-0.2109375 z m 0,0"
         style="fill:#000000;fill-opacity:1;fill-rule:nonzero;stroke:none" />
    </g>
    <path
       id="path19"
       d="m 47.4794,-62.36288 h 9.92427"
       style="fill:none;stroke:#000000;stroke-width:0.79701;stroke-linecap:butt;stroke-linejoin:miter;stroke-miterlimit:10;stroke-dasharray:none;stroke-opacity:1"
       transform="matrix(1.3333333,0,0,-1.3333333,106.30933,119.74667)" />
    <path
       id="path20"
       d="M -1.55415,2.0722 C -1.42464,1.29512 0,0.1295 0.38852,0 0,-0.1295 -1.42464,-1.29512 -1.55415,-2.0722"
       style="fill:none;stroke:#000000;stroke-width:0.6376;stroke-linecap:round;stroke-linejoin:round;stroke-miterlimit:10;stroke-dasharray:none;stroke-opacity:1"
       transform="matrix(-1.3333333,0,0,1.3333333,169.6152,202.89717)" />
    <path
       id="path21"
       d="M -1.55415,2.0722 C -1.42464,1.29512 0,0.1295 0.38852,0 0,-0.1295 -1.42464,-1.29512 -1.55415,-2.0722"
       style="fill:none;stroke:#000000;stroke-width:0.6376;stroke-linecap:round;stroke-linejoin:round;stroke-miterlimit:10;stroke-dasharray:none;stroke-opacity:1"
       transform="matrix(1.3333333,0,0,-1.3333333,182.84756,202.89717)" />
    <path
       id="path22"
       d="m -47.4794,-62.36288 h -9.92427"
       style="fill:none;stroke:#000000;stroke-width:0.79701;stroke-linecap:butt;stroke-linejoin:miter;stroke-miterlimit:10;stroke-dasharray:none;stroke-opacity:1"
       transform="matrix(1.3333333,0,0,-1.3333333,106.30933,119.74667)" />
    <path
       id="path23"
       d="M -1.55415,2.0722 C -1.42464,1.29512 0,0.1295 0.38852,0 0,-0.1295 -1.42464,-1.29512 -1.55415,-2.0722"
       style="fill:none;stroke:#000000;stroke-width:0.6376;stroke-linecap:round;stroke-linejoin:round;stroke-miterlimit:10;stroke-dasharray:none;stroke-opacity:1"
       transform="matrix(1.3333333,0,0,-1.3333333,43.003467,202.89717)" />
    <path
       id="path24"
       d="M -1.55415,2.0722 C -1.42464,1.29512 0,0.1295 0.38852,0 0,-0.1295 -1.42464,-1.29512 -1.55415,-2.0722"
       style="fill:none;stroke:#000000;stroke-width:0.6376;stroke-linecap:round;stroke-linejoin:round;stroke-miterlimit:10;stroke-dasharray:none;stroke-opacity:1"
       transform="matrix(-1.3333333,0,0,1.3333333,29.771107,202.89717)" />
    <g
       id="g24"
       aria-label="∼1/Ha"
       transform="matrix(1.3333333,0,0,1.3333333,15.054667,217.556)">
      <path
         id="path25"
         d="m 7.1953281,-3.3291094 c 0,-0.2226562 -0.058594,-0.3164062 -0.140625,-0.3164062 -0.046875,0 -0.1289062,0.070312 -0.140625,0.2578125 -0.035156,0.9609375 -0.703125,1.5 -1.3945312,1.5 -0.6328125,0 -1.1015625,-0.421875 -1.59375,-0.8554688 -0.5039063,-0.4570312 -1.03125,-0.9140625 -1.6992188,-0.9140625 -1.0898437,0 -1.67578122,1.1015625 -1.67578122,2.0039063 0,0.3164062 0.12890625,0.3164062 0.140625,0.3164062 0.10546875,0 0.140625,-0.1992187 0.140625,-0.2226562 0.0351563,-1.1015625 0.78515622,-1.5351563 1.39453122,-1.5351563 0.6210938,0 1.1015625,0.421875 1.59375,0.8554688 0.5039063,0.4570312 1.0195313,0.9140625 1.6992188,0.9140625 1.0898437,0 1.6757812,-1.1015625 1.6757812,-2.0039063 z m 0,0"
         style="fill:#000000;fill-opacity:1;fill-rule:nonzero;stroke:none" />
      <path
         id="path26"
         d="m 13.444352,-6.3759844 c 0,-0.234375 0,-0.2578125 -0.234375,-0.2578125 -0.609375,0.6328125 -1.488282,0.6328125 -1.804688,0.6328125 v 0.3164063 c 0.199219,0 0.785156,0 1.300781,-0.2578125 v 5.15624997 c 0,0.3515625 -0.03516,0.48046875 -0.925781,0.48046875 h -0.316406 v 0.304687505 c 0.351562,-0.035156255 1.207031,-0.035156255 1.605469,-0.035156255 0.398437,0 1.265625,0 1.617187,0.035156255 V -0.30567188 h -0.316406 c -0.902344,0 -0.925781,-0.1171875 -0.925781,-0.48046875 z m 0,0"
         style="fill:#000000;fill-opacity:1;fill-rule:nonzero;stroke:none" />
      <path
         id="path27"
         d="m 19.869156,-7.0908281 c 0.04687,-0.1289063 0.04687,-0.1757813 0.04687,-0.1875 0,-0.1054688 -0.08203,-0.1992188 -0.199218,-0.1992188 -0.07031,0 -0.128907,0.035156 -0.164063,0.09375 l -3.457031,9.4921875 c -0.04687,0.1289063 -0.04687,0.1757813 -0.04687,0.1875 0,0.1054688 0.08203,0.1992188 0.199219,0.1992188 0.128906,0 0.152343,-0.070312 0.210937,-0.2460938 z M 28.084,-6.0361406 c 0.08203,-0.3632813 0.105469,-0.4570313 0.832031,-0.4570313 0.257813,0 0.339844,0 0.339844,-0.1992187 0,-0.1171875 -0.105469,-0.1171875 -0.140625,-0.1171875 -0.28125,0 -0.996094,0.035156 -1.277344,0.035156 -0.28125,0 -0.996093,-0.035156 -1.277343,-0.035156 -0.08203,0 -0.199219,0 -0.199219,0.1992187 0,0.1171875 0.09375,0.1171875 0.28125,0.1171875 0.02344,0 0.210937,0 0.375,0.011719 0.1875,0.023437 0.269531,0.035156 0.269531,0.1640625 0,0.035156 0,0.058594 -0.03516,0.1875 l -0.597656,2.4375 h -3.035157 l 0.585938,-2.34375 c 0.09375,-0.3632813 0.117187,-0.4570313 0.832031,-0.4570313 0.257813,0 0.339844,0 0.339844,-0.1992187 0,-0.1171875 -0.105469,-0.1171875 -0.140625,-0.1171875 -0.269531,0 -0.996094,0.035156 -1.265625,0.035156 -0.292969,0 -0.996094,-0.035156 -1.289063,-0.035156 -0.08203,0 -0.1875,0 -0.1875,0.1992187 0,0.1171875 0.08203,0.1171875 0.28125,0.1171875 0.01172,0 0.199219,0 0.375,0.011719 0.175782,0.023437 0.269532,0.035156 0.269532,0.1640625 0,0.035156 -0.01172,0.070312 -0.04687,0.1875 l -1.335938,5.35546872 c -0.09375,0.38671875 -0.117187,0.46875 -0.902344,0.46875 -0.175781,0 -0.269531,0 -0.269531,0.19921875 0,0.105468755 0.117188,0.105468755 0.140625,0.105468755 0.28125,0 0.984375,-0.035156255 1.265625,-0.035156255 0.210938,0 0.433594,0.01171875 0.632813,0.01171875 0.222656,0 0.445312,0.023437505 0.65625,0.023437505 0.07031,0 0.199218,0 0.199218,-0.199218755 0,-0.10546875 -0.09375,-0.10546875 -0.28125,-0.10546875 -0.375,0 -0.644531,0 -0.644531,-0.1875 0,-0.0585938 0.01172,-0.10546875 0.02344,-0.1640625 l 0.679687,-2.73046872 h 3.035156 c -0.410156,1.6523437 -0.644531,2.60156247 -0.679687,2.75390622 -0.105469,0.31640625 -0.292969,0.328125 -0.914063,0.328125 -0.152343,0 -0.234375,0 -0.234375,0.19921875 0,0.105468755 0.117188,0.105468755 0.140625,0.105468755 0.28125,0 0.984375,-0.035156255 1.265625,-0.035156255 0.210938,0 0.421875,0.01171875 0.632813,0.01171875 0.222656,0 0.433594,0.023437505 0.644531,0.023437505 0.08203,0 0.199219,0 0.199219,-0.199218755 0,-0.10546875 -0.08203,-0.10546875 -0.269531,-0.10546875 -0.375,0 -0.65625,0 -0.65625,-0.1875 0,-0.0585938 0.02344,-0.10546875 0.03516,-0.1640625 z m 5.197266,2.2734375 c -0.175782,-0.375 -0.46875,-0.6445313 -0.914063,-0.6445313 -1.171875,0 -2.402344,1.4648438 -2.402344,2.9179688 0,0.93749997 0.550782,1.59374997 1.324219,1.59374997 0.199219,0 0.703125,-0.03515625 1.300781,-0.73828125 0.07031,0.41015625 0.421875,0.73828125 0.902344,0.73828125 0.351563,0 0.574219,-0.22265625 0.738281,-0.5390625 0.164063,-0.36328125 0.292969,-0.97265627 0.292969,-0.99609377 0,-0.09375 -0.08203,-0.09375 -0.117187,-0.09375 -0.09375,0 -0.105469,0.035156 -0.140625,0.1757813 -0.164063,0.64453122 -0.351563,1.24218747 -0.75,1.24218747 -0.269532,0 -0.304688,-0.2578125 -0.304688,-0.45703125 0,-0.22265625 0.02344,-0.3046875 0.128906,-0.73828122 0.117188,-0.421875 0.128907,-0.5273438 0.222657,-0.9023438 l 0.351562,-1.3945312 c 0.07031,-0.28125 0.07031,-0.2929688 0.07031,-0.3398438 0,-0.1640625 -0.117188,-0.2695312 -0.28125,-0.2695312 -0.246094,0 -0.386719,0.2226562 -0.421875,0.4453125 z m -0.644532,2.578125 c -0.04687,0.1757812 -0.04687,0.19921872 -0.199218,0.36328122 -0.445313,0.55078125 -0.84375,0.71484375 -1.125,0.71484375 -0.503907,0 -0.644532,-0.55078125 -0.644532,-0.93749997 0,-0.5039063 0.328125,-1.7226563 0.550782,-2.1796875 0.304687,-0.5976563 0.761718,-0.9609375 1.160156,-0.9609375 0.644531,0 0.785156,0.8203125 0.785156,0.8789062 0,0.058594 -0.02344,0.1171875 -0.03516,0.1640625 z m 0,0"
         style="fill:#000000;fill-opacity:1;fill-rule:nonzero;stroke:none" />
    </g>
    <g
       id="g27"
       aria-label="∼1/Ha"
       transform="matrix(1.3333333,0,0,1.3333333,151.11733,217.556)">
      <path
         id="path28"
         d="m 7.1952031,-3.3291094 c 0,-0.2226562 -0.058594,-0.3164062 -0.140625,-0.3164062 -0.046875,0 -0.1289062,0.070312 -0.140625,0.2578125 -0.035156,0.9609375 -0.703125,1.5 -1.3945312,1.5 -0.6328125,0 -1.1015625,-0.421875 -1.59375,-0.8554688 -0.5039063,-0.4570312 -1.03125,-0.9140625 -1.6992188,-0.9140625 -1.0898437,0 -1.67578122,1.1015625 -1.67578122,2.0039063 0,0.3164062 0.12890625,0.3164062 0.140625,0.3164062 0.10546875,0 0.140625,-0.1992187 0.140625,-0.2226562 0.0351563,-1.1015625 0.78515622,-1.5351563 1.39453122,-1.5351563 0.6210938,0 1.1015625,0.421875 1.59375,0.8554688 0.5039063,0.4570312 1.0195313,0.9140625 1.6992188,0.9140625 1.0898437,0 1.6757812,-1.1015625 1.6757812,-2.0039063 z m 0,0"
         style="fill:#000000;fill-opacity:1;fill-rule:nonzero;stroke:none" />
      <path
         id="path29"
         d="m 13.444227,-6.3759844 c 0,-0.234375 0,-0.2578125 -0.234375,-0.2578125 -0.609375,0.6328125 -1.488282,0.6328125 -1.804688,0.6328125 v 0.3164063 c 0.199219,0 0.785156,0 1.300781,-0.2578125 v 5.15624997 c 0,0.3515625 -0.03516,0.48046875 -0.925781,0.48046875 h -0.316406 v 0.304687505 c 0.351562,-0.035156255 1.207031,-0.035156255 1.605469,-0.035156255 0.398437,0 1.265625,0 1.617187,0.035156255 V -0.30567188 h -0.316406 c -0.902344,0 -0.925781,-0.1171875 -0.925781,-0.48046875 z m 0,0"
         style="fill:#000000;fill-opacity:1;fill-rule:nonzero;stroke:none" />
      <path
         id="path30"
         d="m 19.869031,-7.0908281 c 0.04687,-0.1289063 0.04687,-0.1757813 0.04687,-0.1875 0,-0.1054688 -0.08203,-0.1992188 -0.199218,-0.1992188 -0.07031,0 -0.128907,0.035156 -0.164063,0.09375 l -3.457031,9.4921875 c -0.04687,0.1289063 -0.04687,0.1757813 -0.04687,0.1875 0,0.1054688 0.08203,0.1992188 0.199219,0.1992188 0.128906,0 0.152343,-0.070312 0.210937,-0.2460938 z m 8.214844,1.0546875 c 0.08203,-0.3632813 0.105469,-0.4570313 0.832031,-0.4570313 0.257813,0 0.339844,0 0.339844,-0.1992187 0,-0.1171875 -0.105469,-0.1171875 -0.140625,-0.1171875 -0.28125,0 -0.996094,0.035156 -1.277344,0.035156 -0.28125,0 -0.996093,-0.035156 -1.277343,-0.035156 -0.08203,0 -0.199219,0 -0.199219,0.1992187 0,0.1171875 0.09375,0.1171875 0.28125,0.1171875 0.02344,0 0.210937,0 0.375,0.011719 0.1875,0.023437 0.269531,0.035156 0.269531,0.1640625 0,0.035156 0,0.058594 -0.03516,0.1875 l -0.597656,2.4375 h -3.035157 l 0.585938,-2.34375 c 0.09375,-0.3632813 0.117187,-0.4570313 0.832031,-0.4570313 0.257813,0 0.339844,0 0.339844,-0.1992187 0,-0.1171875 -0.105469,-0.1171875 -0.140625,-0.1171875 -0.269531,0 -0.996094,0.035156 -1.265625,0.035156 -0.292969,0 -0.996094,-0.035156 -1.289063,-0.035156 -0.08203,0 -0.1875,0 -0.1875,0.1992187 0,0.1171875 0.08203,0.1171875 0.28125,0.1171875 0.01172,0 0.199219,0 0.375,0.011719 0.175782,0.023437 0.269532,0.035156 0.269532,0.1640625 0,0.035156 -0.01172,0.070312 -0.04687,0.1875 L 22.037,-0.77442188 c -0.09375,0.38671875 -0.117187,0.46875 -0.902344,0.46875 -0.175781,0 -0.269531,0 -0.269531,0.19921875 0,0.105468755 0.117188,0.105468755 0.140625,0.105468755 0.28125,0 0.984375,-0.035156255 1.265625,-0.035156255 0.210938,0 0.433594,0.01171875 0.632813,0.01171875 0.222656,0 0.445312,0.023437505 0.65625,0.023437505 0.07031,0 0.199218,0 0.199218,-0.199218755 0,-0.10546875 -0.09375,-0.10546875 -0.28125,-0.10546875 -0.375,0 -0.644531,0 -0.644531,-0.1875 0,-0.0585938 0.01172,-0.10546875 0.02344,-0.1640625 L 23.537,-3.3877031 h 3.035156 c -0.410156,1.6523437 -0.644531,2.60156247 -0.679687,2.75390622 -0.105469,0.31640625 -0.292969,0.328125 -0.914063,0.328125 -0.152343,0 -0.234375,0 -0.234375,0.19921875 0,0.105468755 0.117188,0.105468755 0.140625,0.105468755 0.28125,0 0.984375,-0.035156255 1.265625,-0.035156255 0.210938,0 0.421875,0.01171875 0.632813,0.01171875 0.222656,0 0.433594,0.023437505 0.644531,0.023437505 0.08203,0 0.199219,0 0.199219,-0.199218755 0,-0.10546875 -0.08203,-0.10546875 -0.269531,-0.10546875 -0.375,0 -0.65625,0 -0.65625,-0.1875 0,-0.0585938 0.02344,-0.10546875 0.03516,-0.1640625 z m 5.197266,2.2734375 c -0.175782,-0.375 -0.46875,-0.6445313 -0.914063,-0.6445313 -1.171875,0 -2.402344,1.4648438 -2.402344,2.9179688 0,0.93749997 0.550782,1.59374997 1.324219,1.59374997 0.199219,0 0.703125,-0.03515625 1.300781,-0.73828125 0.07031,0.41015625 0.421875,0.73828125 0.902344,0.73828125 0.351563,0 0.574219,-0.22265625 0.738281,-0.5390625 0.164063,-0.36328125 0.292969,-0.97265627 0.292969,-0.99609377 0,-0.09375 -0.08203,-0.09375 -0.117187,-0.09375 -0.09375,0 -0.105469,0.035156 -0.140625,0.1757813 -0.164063,0.64453122 -0.351563,1.24218747 -0.75,1.24218747 -0.269532,0 -0.304688,-0.2578125 -0.304688,-0.45703125 0,-0.22265625 0.02344,-0.3046875 0.128906,-0.73828122 0.117188,-0.421875 0.128907,-0.5273438 0.222657,-0.9023438 l 0.351562,-1.3945312 c 0.07031,-0.28125 0.07031,-0.2929688 0.07031,-0.3398438 0,-0.1640625 -0.117188,-0.2695312 -0.28125,-0.2695312 -0.246094,0 -0.386719,0.2226562 -0.421875,0.4453125 z m -0.644532,2.578125 c -0.04687,0.1757812 -0.04687,0.19921872 -0.199218,0.36328122 -0.445313,0.55078125 -0.84375,0.71484375 -1.125,0.71484375 -0.503907,0 -0.644532,-0.55078125 -0.644532,-0.93749997 0,-0.5039063 0.328125,-1.7226563 0.550782,-2.1796875 0.304687,-0.5976563 0.761718,-0.9609375 1.160156,-0.9609375 0.644531,0 0.785156,0.8203125 0.785156,0.8789062 0,0.058594 -0.02344,0.1171875 -0.03516,0.1640625 z m 0,0"
         style="fill:#000000;fill-opacity:1;fill-rule:nonzero;stroke:none" />
    </g>
  </g>
</svg>
